# xmcd CD database file
#
# Track frame offsets:
#	150
#	18220
#	34105
#	53252
#	73772
#	95850
#	110907
#	131690
#	145805
#
# Disc length: 2224 seconds
#
# Revision: 0
# Processed by: cddbd v1.5.1PL0 Copyright (c) Steve Scherf et al.
# Submitted via: CDex 1.51
#
DISCID=7d08ae09
DTITLE=Various Artist - キン肉マンII世　キャラクターソングコレクション　新世代正義超人の歌
DYEAR=2002
DGENRE=Anime
TTITLE0=河野陽吾/HUSTLE MUSCLE
TTITLE1=小野坂昌也/カルビ丼音頭
TTITLE2=増谷康紀/ガゼルマンの叫び〜ガゼルマンのテーマ〜
TTITLE3=山崎たくみ/精一杯！セイウチン〜セイウチンのテーマ〜
TTITLE4=森川智之/STARS AND STRIPES〜テリー・ザ・キッドのテーマ〜
TTITLE5=吉田小南美/ミートにおまかせ〜ミートのテーマ〜
TTITLE6=置鮎龍太郎/GOD SAVE THE QUEEN〜ケビンマスクのテーマ〜
TTITLE7=ザ・パーマネンツ/愛のマッスル
TTITLE8=角田信朗/MUSCLE BEAR
EXTD=YEAR: 2002
EXTT0=
EXTT1=
EXTT2=
EXTT3=
EXTT4=
EXTT5=
EXTT6=
EXTT7=
EXTT8=
PLAYORDER=
